<svg width="390" height="844" viewBox="0 0 390 844" fill="none" xmlns="http://www.w3.org/2000/svg">
<g clip-path="url(#clip0_2071_214)">
<path d="M171.044 626.892H198.931L181.4 595.634L191.394 572.239L208.455 559.786L205.021 436.624L192.985 397.375L151.2 562.827V606.431L171.044 626.892Z" fill="#4E3529"/>
<path d="M293 427.608L268.078 465.975L238.275 461.62L203.25 263.955L222.859 237.123L247.944 248.497L245.505 275.976L265.674 319.724L264.391 370.615L293 427.608Z" fill="#4E3529"/>
<path d="M285.861 425.988L260.089 464.805L238.275 461.62L203.25 247.561L222.859 237.123L239.794 244.808L236.125 273.007L257.216 320.749L255.065 371.551L285.861 425.988Z" fill="#B6836D"/>
<path d="M279.12 424.89L250.348 463.383L238.275 461.62L203.25 247.561L222.859 237.123L231.191 240.903L225.371 271.963L248.722 320.965L245.74 372.109L279.12 424.89Z" fill="#3C6827"/>
<path d="M198.931 435.832L202.148 558.49L185.774 569.702L175.364 596.263L191.105 626.946L171.044 626.892L148.598 586.474L183.985 433.924L198.931 435.832Z" fill="#B6836D"/>
<path d="M190.943 434.806L194.666 557.069L179.828 566.966L169.201 596.677L183.063 626.964L171.044 626.892L148.598 586.474L183.985 433.924L198.931 435.832" fill="#3C6827"/>
<path opacity="0.2" d="M212.486 270.433L245.505 275.976L247.945 248.497L222.859 237.123L212.486 270.433Z" fill="#231F20"/>
<path opacity="0.2" d="M265.674 319.724H238.854L235.564 373.117L264.391 370.615L265.674 319.724Z" fill="#231F20"/>
<path opacity="0.2" d="M293 427.608L268.078 465.975L238.275 461.62L270.843 423.451L293 427.608Z" fill="#231F20"/>
<path opacity="0.2" d="M187.183 555.305L208.455 559.786L191.394 572.239L173.755 563.763L171.695 559.552L187.183 555.305Z" fill="#231F20"/>
<path opacity="0.2" d="M181.4 595.634L157.002 597.253L171.045 626.892H198.931L181.4 595.634Z" fill="#231F20"/>
<path d="M97 553.308L132.332 565.941C134.14 566.588 135.387 568.226 135.549 570.133L139.019 614.025C139.128 615.411 140.068 616.616 141.405 617.048L171.044 626.892C172.093 627.234 173.051 626.172 172.581 625.182L161.177 600.834C160.147 598.657 160.074 596.137 160.978 593.888L172.237 565.599C173.051 563.547 174.569 561.874 176.521 560.848L187.202 555.269L184.003 464.301V433.906L205.039 436.606L238.294 461.602L270.861 423.433L235.583 373.099L239.342 324.384C239.541 321.793 238.98 319.184 237.751 316.898L212.522 270.415L222.895 237.123C207.534 236.961 188.015 235.774 177.171 235.036C171.948 234.676 166.852 236.727 163.327 240.597L132.947 273.961C129.585 277.668 127.706 282.472 127.706 287.475V321.091C127.706 324.87 126.802 328.595 125.067 331.961L97 386.488" fill="#87C662"/>
<path d="M97 386.488L148.598 390.141L194.611 328.092L214.293 312.579L224.576 292.676L212.504 270.434L222.877 237.142L177.135 235.036C177.135 235.036 168.984 234.316 163.291 240.597C158.159 246.265 132.911 273.961 132.911 273.961C132.911 273.961 127.597 279.413 127.67 287.475C127.742 293.756 127.67 321.091 127.67 321.091C127.67 321.091 128.176 325.86 125.031 331.961C121.886 338.061 97 386.488 97 386.488Z" fill="#67A043"/>
<path d="M97 386.488L148.598 390.141L157.02 419.528L184.003 433.924L187.202 555.305L176.521 560.884C176.521 560.884 173.538 562.359 172.237 565.635L161.303 593.132C161.303 593.132 159.225 596.659 161.195 600.852L172.599 625.2C172.599 625.2 173.032 627.576 171.063 626.91L141.785 617.192C141.785 617.192 139.272 616.958 139.001 613.575L135.567 570.152C135.567 570.152 135.369 567.452 133.019 566.265C130.67 565.077 98.7711 553.974 98.7711 553.974" fill="#6EAF46"/>
</g>
<defs>
<clipPath id="clip0_2071_214">
<rect width="196" height="392" fill="white" transform="translate(97 235)"/>
</clipPath>
</defs>
</svg>
