<svg xmlns="http://www.w3.org/2000/svg" width="142" height="102" viewBox="0 0 142 102" fill="none">
  <g filter="url(#filter0_i_1239_205)">
    <rect x="53" y="19" width="28" height="28" rx="6" fill="#EC0E52"/>
    <rect x="53" y="19" width="28" height="28" rx="6" fill="url(#paint0_radial_1239_205)" fill-opacity="0.7"/>
  </g>
  <g filter="url(#filter1_d_1239_205)">
    <path fill-rule="evenodd" clip-rule="evenodd" d="M74.7063 25.2938C75.2383 25.8258 75.2383 26.6883 74.7063 27.2203L67.9633 33.9633C67.4313 34.4953 66.5688 34.4953 66.0368 33.9633L59.2938 27.2203C58.7618 26.6883 58.7618 25.8258 59.2938 25.2938C59.8258 24.7618 60.6883 24.7618 61.2203 25.2938L67 31.0735L72.7797 25.2938C73.3117 24.7618 74.1743 24.7618 74.7063 25.2938Z" fill="white" fill-opacity="0.85"/>
    <path fill-rule="evenodd" clip-rule="evenodd" d="M59.2938 40.7063C58.7618 40.1743 58.7618 39.3117 59.2938 38.7797L66.0368 32.0368C66.5688 31.5048 67.4313 31.5048 67.9633 32.0368L74.7063 38.7797C75.2383 39.3117 75.2383 40.1743 74.7063 40.7063C74.1743 41.2383 73.3117 41.2383 72.7797 40.7063L67 34.9266L61.2203 40.7063C60.6883 41.2383 59.8258 41.2383 59.2938 40.7063Z" fill="white" fill-opacity="0.85"/>
  </g>
  <defs>
    <filter id="filter0_i_1239_205" x="50" y="15" width="31" height="32" filterUnits="userSpaceOnUse" color-interpolation-filters="sRGB">
      <feFlood flood-opacity="0" result="BackgroundImageFix"/>
      <feBlend mode="normal" in="SourceGraphic" in2="BackgroundImageFix" result="shape"/>
      <feColorMatrix in="SourceAlpha" type="matrix" values="0 0 0 0 0 0 0 0 0 0 0 0 0 0 0 0 0 0 127 0" result="hardAlpha"/>
      <feOffset dx="-3" dy="-4"/>
      <feGaussianBlur stdDeviation="3.5"/>
      <feComposite in2="hardAlpha" operator="arithmetic" k2="-1" k3="1"/>
      <feColorMatrix type="matrix" values="0 0 0 0 1 0 0 0 0 1 0 0 0 0 1 0 0 0 0.15 0"/>
      <feBlend mode="normal" in2="shape" result="effect1_innerShadow_1239_205"/>
    </filter>
    <filter id="filter1_d_1239_205" x="0.894775" y="0.894775" width="140.211" height="140.21" filterUnits="userSpaceOnUse" color-interpolation-filters="sRGB">
      <feFlood flood-opacity="0" result="BackgroundImageFix"/>
      <feColorMatrix in="SourceAlpha" type="matrix" values="0 0 0 0 0 0 0 0 0 0 0 0 0 0 0 0 0 0 127 0" result="hardAlpha"/>
      <feOffset dx="4" dy="38"/>
      <feGaussianBlur stdDeviation="31"/>
      <feColorMatrix type="matrix" values="0 0 0 0 0 0 0 0 0 0 0 0 0 0 0 0 0 0 0.5 0"/>
      <feBlend mode="normal" in2="BackgroundImageFix" result="effect1_dropShadow_1239_205"/>
      <feBlend mode="normal" in="SourceGraphic" in2="effect1_dropShadow_1239_205" result="shape"/>
    </filter>
    <radialGradient id="paint0_radial_1239_205" cx="0" cy="0" r="1" gradientUnits="userSpaceOnUse" gradientTransform="translate(60.3889 24.8333) rotate(51.0441) scale(23.5045 23.5045)">
      <stop stop-color="white" stop-opacity="0.59"/>
      <stop offset="0.697917" stop-color="white" stop-opacity="0"/>
      <stop offset="1" stop-color="white" stop-opacity="0"/>
    </radialGradient>
  </defs>
</svg>