<svg xmlns="http://www.w3.org/2000/svg" width="30" height="30" viewBox="0 0 30 30" fill="none">
  <path d="M7.49935 28.633C10.8865 28.633 13.6324 25.8871 13.6324 22.5C13.6324 19.1128 10.8865 16.3669 7.49935 16.3669C4.11218 16.3669 1.36633 19.1128 1.36633 22.5C1.36633 25.8871 4.11218 28.633 7.49935 28.633Z" fill="url(#paint0_linear_977_652)"/>
  <path d="M29.9824 23.0111C30.1129 21.0441 29.4831 19.2277 28.36 17.8222L28.3628 17.8236C26.2017 14.956 28.3628 12.1761 28.3628 12.1761H28.3607C28.6156 11.8584 28.8449 11.5179 29.0459 11.1602C29.0472 11.1574 29.0486 11.1553 29.05 11.1526C29.0935 11.0752 29.135 10.9965 29.175 10.9171C29.1854 10.897 29.1957 10.8763 29.2061 10.8563C29.2427 10.7838 29.2779 10.7106 29.3118 10.6367C29.3249 10.6083 29.3373 10.5807 29.3498 10.5524C29.3815 10.482 29.4119 10.4108 29.4416 10.339C29.4547 10.3072 29.4672 10.2748 29.4796 10.243C29.5072 10.1725 29.5349 10.1014 29.5611 10.0303C29.5694 10.0082 29.5763 9.98537 29.5839 9.96327C29.6281 9.82929 29.6723 9.69599 29.711 9.55993C29.7255 9.50951 29.7407 9.4591 29.7538 9.40868C29.7676 9.35481 29.78 9.30025 29.7932 9.24637C29.8077 9.18698 29.8215 9.12758 29.8346 9.06749C29.8456 9.01569 29.8553 8.96321 29.8657 8.91072C29.8781 8.84717 29.8892 8.78294 29.9002 8.71871C29.9085 8.66829 29.9161 8.61788 29.9237 8.56677C29.9334 8.4977 29.9423 8.42864 29.9499 8.35888C29.9555 8.31123 29.961 8.26426 29.9651 8.21661C29.9727 8.13856 29.9783 8.05983 29.9831 7.98109C29.9858 7.94103 29.9893 7.90167 29.9907 7.86161C29.9962 7.74213 29.9997 7.62195 29.9997 7.50178C29.9997 5.04235 28.8159 2.85919 26.987 1.49169C26.6023 1.20369 26.1886 0.952291 25.7514 0.740951C25.4234 0.582791 25.0822 0.448113 24.73 0.338299C24.0255 0.119361 23.2761 0.00125886 22.4998 0.00125886C22.379 0.00125886 22.2588 0.00471214 22.1393 0.0102374C22.0993 0.0123094 22.0599 0.0157626 22.0198 0.0178346C21.9411 0.0226692 21.8617 0.0281944 21.7836 0.0357916C21.736 0.0406262 21.689 0.0461515 21.6413 0.0509861C21.5716 0.0592739 21.5025 0.0675618 21.4328 0.077231C21.3824 0.0841375 21.3319 0.0924254 21.2815 0.100023C21.2166 0.110382 21.1524 0.122124 21.0881 0.134555C21.0356 0.144225 20.9838 0.154584 20.932 0.165635C20.872 0.178757 20.8119 0.19257 20.7525 0.207074C20.6986 0.220197 20.6447 0.231938 20.5909 0.246442C20.5391 0.260255 20.488 0.275449 20.4362 0.290644C20.3042 0.32863 20.173 0.37076 20.0425 0.414962C20.0176 0.423249 19.9928 0.431537 19.9679 0.439825C19.8968 0.465379 19.8263 0.493006 19.7559 0.520632C19.7234 0.533754 19.6909 0.545495 19.6585 0.559309C19.5867 0.588316 19.5162 0.619396 19.4458 0.650475C19.4174 0.662907 19.3891 0.676029 19.3608 0.689152C19.2876 0.722994 19.2144 0.758217 19.1419 0.794131C19.1211 0.804491 19.0997 0.815542 19.079 0.825902C19.0003 0.86596 18.9222 0.907399 18.8456 0.95022C18.8421 0.952291 18.8387 0.954363 18.8345 0.956435C18.4768 1.15673 18.1377 1.38602 17.82 1.64018L17.8213 1.63742C14.9537 3.79848 12.1738 1.63742 12.1738 1.63742V1.63949C10.7711 0.515797 8.9547 -0.114081 6.98771 0.0171439C3.19049 0.269233 0.153677 3.39652 0.00587709 7.19927C-0.161262 11.4779 3.25817 14.9995 7.50018 14.9995C9.26964 14.9995 10.8948 14.3855 12.1773 13.3606V13.3627C12.1773 13.3627 12.2719 13.2881 12.446 13.181C15.4013 11.3605 18.7344 14.9643 16.6818 17.7635C16.6672 17.7836 16.6527 17.8036 16.6376 17.8229L16.6403 17.8216C15.6154 19.1041 15.0007 20.7299 15.0007 22.4994C15.0007 26.7414 18.5224 30.1608 22.801 29.9937C26.6044 29.8452 29.731 26.8084 29.9838 23.0104L29.9824 23.0111Z" fill="url(#paint1_linear_977_652)"/>
  <defs>
    <linearGradient id="paint0_linear_977_652" x1="16.4995" y1="11.4998" x2="0.999512" y2="28.9998" gradientUnits="userSpaceOnUse">
      <stop offset="0.252758" stop-color="white"/>
      <stop offset="1" stop-color="white" stop-opacity="0"/>
    </linearGradient>
    <linearGradient id="paint1_linear_977_652" x1="28.5845" y1="3.06294" x2="8.85179" y2="20.4018" gradientUnits="userSpaceOnUse">
      <stop stop-color="white"/>
      <stop offset="1" stop-color="white" stop-opacity="0"/>
    </linearGradient>
  </defs>
</svg>