<svg width="615" height="615" viewBox="0 0 615 615" fill="none" xmlns="http://www.w3.org/2000/svg">
<g clip-path="url(#clip0_804_260)">
<path d="M138.36 533.887C199.319 542.275 255.536 499.657 263.924 438.698C272.312 377.739 229.695 321.522 168.735 313.134C107.776 304.746 51.5591 347.363 43.1711 408.322C34.7832 469.282 77.4006 525.499 138.36 533.887Z" fill="url(#paint0_linear_804_260)"/>
<path d="M556.909 488.385C564.129 453.308 557.291 419.058 540.561 390.982L540.607 391.014C508.816 334.054 554.593 289.375 554.593 289.375L554.555 289.37C559.929 284.284 564.898 278.724 569.401 272.783C569.433 272.736 569.463 272.702 569.495 272.656C570.469 271.372 571.41 270.057 572.328 268.727C572.564 268.392 572.802 268.045 573.038 267.71C573.876 266.496 574.691 265.266 575.483 264.019C575.79 263.542 576.082 263.076 576.376 262.597C577.122 261.408 577.845 260.203 578.557 258.984C578.872 258.444 579.176 257.891 579.479 257.35C580.15 256.151 580.824 254.939 581.472 253.723C581.676 253.346 581.857 252.953 582.048 252.574C583.176 250.272 584.301 247.983 585.334 245.63C585.72 244.758 586.118 243.889 586.479 243.014C586.861 242.078 587.22 241.127 587.59 240.19C587.998 239.157 588.394 238.122 588.779 237.074C589.106 236.169 589.41 235.248 589.726 234.329C590.107 233.216 590.465 232.088 590.823 230.959C591.097 230.072 591.359 229.184 591.622 228.283C591.967 227.064 592.3 225.843 592.609 224.606C592.827 223.762 593.042 222.931 593.235 222.083C593.565 220.698 593.859 219.294 594.141 217.889C594.29 217.175 594.45 216.475 594.574 215.758C594.969 213.621 595.329 211.467 595.627 209.304C601.717 165.042 585.819 122.819 556.291 93.6795C550.081 87.5436 543.258 81.9947 535.913 77.1085C530.401 73.4497 524.594 70.181 518.527 67.3324C506.391 61.6476 493.197 57.6664 479.226 55.744C477.051 55.4447 474.879 55.2092 472.715 55.0128C471.989 54.9509 471.272 54.9155 470.546 54.8536C469.117 54.7457 467.674 54.6484 466.251 54.5919C465.381 54.5609 464.522 54.544 463.652 54.513C462.377 54.4894 461.113 54.4675 459.834 54.4688C458.909 54.4682 457.981 54.4926 457.055 54.5044C455.861 54.5301 454.676 54.5823 453.489 54.647C452.521 54.6911 451.563 54.7492 450.603 54.8198C449.489 54.9072 448.374 55.007 447.269 55.1209C446.267 55.2237 445.268 55.3016 444.263 55.4292C443.296 55.5495 442.339 55.6964 441.369 55.8416C438.901 56.1986 436.435 56.6318 433.976 57.1041C433.508 57.1917 433.04 57.2792 432.572 57.3668C431.229 57.6506 429.892 57.9733 428.556 58.296C427.939 58.4518 427.326 58.5827 426.708 58.751C425.343 59.0951 423.998 59.48 422.654 59.8649C422.113 60.0185 421.571 60.1846 421.029 60.3506C419.628 60.7784 418.223 61.231 416.829 61.6978C416.43 61.8329 416.017 61.9787 415.619 62.1139C414.103 62.6398 412.596 63.1923 411.11 63.7731C411.043 63.8019 410.975 63.8306 410.896 63.8577C403.961 66.5763 397.29 69.8633 390.943 73.6507L390.975 73.6044C334.015 105.396 289.336 59.619 289.336 59.619L289.331 59.6563C266.869 35.9593 235.738 20.1252 200.013 17.6158C131.05 12.7492 68.652 61.511 56.5749 129.583C42.9714 206.172 95.7903 278.019 172.134 288.524C203.979 292.906 234.747 285.88 260.367 270.611L260.362 270.648C260.362 270.648 262.25 269.54 265.647 268.044C323.343 242.598 374.404 315.711 330.531 361.005C330.22 361.33 329.91 361.655 329.588 361.965L329.641 361.947C308.02 382.491 292.931 410.228 288.549 442.074C278.044 518.417 332.956 588.678 410.372 596.266C479.191 603.012 542.981 556.101 556.935 488.376L556.909 488.385Z" fill="url(#paint1_linear_804_260)"/>
</g>
<defs>
<linearGradient id="paint0_linear_804_260" x1="168.735" y1="313.134" x2="138.36" y2="533.887" gradientUnits="userSpaceOnUse">
<stop stop-color="white"/>
<stop offset="0.39" stop-color="#F9F9FC"/>
<stop offset="0.88" stop-color="#EAEAF5"/>
<stop offset="1" stop-color="#E6E5F3"/>
</linearGradient>
<linearGradient id="paint1_linear_804_260" x1="581.15" y1="125.913" x2="183.081" y2="389.097" gradientUnits="userSpaceOnUse">
<stop stop-color="white"/>
<stop offset="0.39" stop-color="#F9F9FC"/>
<stop offset="0.88" stop-color="#EAEAF5"/>
<stop offset="1" stop-color="#E6E5F3"/>
</linearGradient>
<clipPath id="clip0_804_260">
<rect width="545" height="545" fill="white" transform="translate(74.2917) rotate(7.83468)"/>
</clipPath>
</defs>
</svg>
