<svg xmlns="http://www.w3.org/2000/svg" width="390" height="580" viewBox="0 0 390 580" fill="none">
  <path d="M468.617 471.385C475.837 436.308 468.999 402.058 452.269 373.982L452.315 374.014C420.524 317.054 466.301 272.375 466.301 272.375L466.264 272.37C471.637 267.284 476.607 261.724 481.11 255.783C481.141 255.736 481.171 255.703 481.203 255.656C482.178 254.372 483.119 253.057 484.036 251.727C484.272 251.392 484.51 251.045 484.746 250.71C485.584 249.496 486.4 248.266 487.192 247.019C487.498 246.542 487.79 246.076 488.084 245.597C488.83 244.408 489.553 243.203 490.266 241.984C490.581 241.444 490.885 240.891 491.187 240.35C491.859 239.151 492.532 237.939 493.181 236.723C493.384 236.346 493.565 235.953 493.757 235.574C494.884 233.272 496.01 230.983 497.043 228.63C497.428 227.758 497.827 226.889 498.188 226.014C498.57 225.079 498.929 224.127 499.298 223.19C499.706 222.157 500.102 221.123 500.487 220.074C500.814 219.169 501.118 218.248 501.435 217.329C501.816 216.216 502.174 215.088 502.531 213.959C502.805 213.072 503.067 212.184 503.33 211.283C503.675 210.064 504.008 208.843 504.317 207.606C504.535 206.762 504.751 205.931 504.943 205.083C505.273 203.698 505.568 202.294 505.85 200.889C505.999 200.175 506.158 199.475 506.282 198.758C506.678 196.621 507.037 194.467 507.335 192.304C513.425 148.042 497.527 105.82 468 76.6796C461.789 70.5437 454.966 64.9948 447.622 60.1086C442.109 56.4498 436.303 53.1811 430.235 50.3325C418.099 44.6477 404.905 40.6665 390.934 38.7441C388.759 38.4447 386.588 38.2093 384.424 38.0128C383.697 37.9509 382.98 37.9156 382.254 37.8537C380.825 37.7457 379.382 37.6485 377.959 37.5919C377.089 37.5609 376.23 37.5441 375.361 37.5131C374.085 37.4895 372.821 37.4676 371.542 37.4689C370.617 37.4683 369.69 37.4926 368.763 37.5045C367.569 37.5302 366.384 37.5824 365.198 37.6471C364.229 37.6911 363.271 37.7493 362.311 37.8199C361.198 37.9073 360.082 38.0071 358.977 38.121C357.975 38.2237 356.976 38.3017 355.971 38.4293C355.005 38.5496 354.047 38.6965 353.077 38.8417C350.609 39.1986 348.143 39.6319 345.684 40.1041C345.216 40.1917 344.748 40.2793 344.28 40.3669C342.937 40.6506 341.601 40.9734 340.264 41.2961C339.648 41.4519 339.034 41.5828 338.416 41.751C337.052 42.0952 335.707 42.4801 334.362 42.865C333.821 43.0186 333.279 43.1846 332.737 43.3507C331.336 43.7784 329.931 44.231 328.537 44.6978C328.138 44.8329 327.726 44.9788 327.327 45.1139C325.811 45.6399 324.304 46.1924 322.818 46.7732C322.751 46.8019 322.684 46.8307 322.604 46.8577C315.669 49.5764 308.998 52.8633 302.651 56.6507L302.683 56.6044C245.723 88.3959 201.045 42.619 201.045 42.619L201.039 42.6563C178.577 18.9594 147.447 3.12522 111.722 0.615849C42.7585 -4.25069 -19.6397 44.5111 -31.7168 112.583C-45.3203 189.172 7.4986 261.019 83.8424 271.524C115.687 275.906 146.455 268.881 172.076 253.611L172.07 253.648C172.07 253.648 173.958 252.54 177.355 251.044C235.051 225.598 286.113 298.711 242.239 344.006C241.929 344.33 241.618 344.655 241.297 344.965L241.35 344.947C219.728 365.491 204.639 393.229 200.257 425.074C189.753 501.417 244.664 571.678 322.081 579.266C390.899 586.012 454.689 539.101 468.644 471.376L468.617 471.385Z" fill="url(#paint0_linear_639_328)"/>
  <defs>
    <linearGradient id="paint0_linear_639_328" x1="492.859" y1="108.913" x2="94.7892" y2="372.097" gradientUnits="userSpaceOnUse">
      <stop stop-color="white"/>
      <stop offset="0.39" stop-color="#F9F9FC"/>
      <stop offset="0.88" stop-color="#EAEAF5"/>
      <stop offset="1" stop-color="#E6E5F3"/>
    </linearGradient>
  </defs>
</svg>