<svg width="20" height="20" viewBox="0 0 20 20" fill="none" xmlns="http://www.w3.org/2000/svg">
<path d="M14.5 0C12.76 0 11.09 0.842378 10 2.17354C8.91 0.842378 7.24 0 5.5 0C2.42 0 0 2.51673 0 5.71985C0 9.65094 3.4 12.8541 8.55 17.7211L10 19.0835L11.45 17.7107C16.6 12.8541 20 9.65094 20 5.71985C20 2.51673 17.58 0 14.5 0ZM10.1 16.1716L10 16.2756L9.9 16.1716C5.14 11.6893 2 8.72537 2 5.71985C2 3.6399 3.5 2.07994 5.5 2.07994C7.04 2.07994 8.54 3.10952 9.07 4.53428H10.94C11.46 3.10952 12.96 2.07994 14.5 2.07994C16.5 2.07994 18 3.6399 18 5.71985C18 8.72537 14.86 11.6893 10.1 16.1716Z" fill="#323232"/>
</svg>
