<svg width="18" height="22" viewBox="0 0 18 22" fill="none" xmlns="http://www.w3.org/2000/svg">
<path d="M15 14.9875C14.24 14.9875 13.56 15.3068 13.04 15.8071L5.91 11.3896C5.96 11.1448 6 10.9 6 10.6445C6 10.3891 5.96 10.1442 5.91 9.8994L12.96 5.52451C13.5 6.05673 14.21 6.38671 15 6.38671C16.66 6.38671 18 4.96035 18 3.19336C18 1.42637 16.66 0 15 0C13.34 0 12 1.42637 12 3.19336C12 3.44882 12.04 3.69365 12.09 3.93847L5.04 8.31337C4.5 7.78115 3.79 7.45116 3 7.45116C1.34 7.45116 0 8.87753 0 10.6445C0 12.4115 1.34 13.8379 3 13.8379C3.79 13.8379 4.5 13.5079 5.04 12.9757L12.16 17.4038C12.11 17.6273 12.08 17.8615 12.08 18.0957C12.08 19.8095 13.39 21.2039 15 21.2039C16.61 21.2039 17.92 19.8095 17.92 18.0957C17.92 16.3819 16.61 14.9875 15 14.9875ZM15 2.1289C15.55 2.1289 16 2.60791 16 3.19336C16 3.7788 15.55 4.25781 15 4.25781C14.45 4.25781 14 3.7788 14 3.19336C14 2.60791 14.45 2.1289 15 2.1289ZM3 11.709C2.45 11.709 2 11.23 2 10.6445C2 10.0591 2.45 9.58007 3 9.58007C3.55 9.58007 4 10.0591 4 10.6445C4 11.23 3.55 11.709 3 11.709ZM15 19.1814C14.45 19.1814 14 18.7024 14 18.117C14 17.5315 14.45 17.0525 15 17.0525C15.55 17.0525 16 17.5315 16 18.117C16 18.7024 15.55 19.1814 15 19.1814Z" fill="#323232"/>
</svg>
